<?xml version="1.0" encoding="UTF-8"?>
<svg xmlns="http://www.w3.org/2000/svg" version="1.1" viewBox="0 0 3262.4 2744.3">
  <defs>
    <style>
      .cls-1 {
        fill: #141414;
      }
    </style>
  </defs>
  <!-- Generator: Adobe Illustrator 28.7.3, SVG Export Plug-In . SVG Version: 1.2.0 Build 164)  -->
  <g>
    <g id="Camada_1">
      <path class="cls-1" d="M1905.2,1810.2c110.3,184.1,218.7,365.2,328.6,548.6-7.2.6-12.3,1.5-17.4,1.5-151.4,0-302.8-.2-454.2.4-14,0-20.6-5.2-27.3-16.6-100.6-172.4-201.8-344.5-302.3-516.9-7.6-13-15.8-17.5-30.8-17.4-82.2.7-164.5.8-246.7,0-14.7-.1-22,5-29.1,17.1-159.4,272.7-319.2,545.2-478.9,817.7-3.4,5.8-7.1,11.4-12,19.1-27.5-46.8-53.9-91.6-80.2-136.4-51-86.9-101.7-173.9-153.1-260.5-6.2-10.5-6-18,.2-28.5,165.7-282,331.1-564.1,496.1-846.6,7.4-12.6,16-14.3,28.6-14.3,459.2.2,918.4,0,1377.6.6,17.1,0,26.5-5.1,35.1-19.9,134.1-229.9,268.7-459.5,403.6-688.9,6.8-11.5,8.2-20,.5-31.8-15.5-24-29.7-48.9-43.4-74-5.6-10.1-12.3-14.5-23.7-13.2-6.1.7-12.4.1-18.7.1-654.8,0-1309.7,0-1964.5,0h-29.2c9.1-15.9,16.2-28.7,23.6-41.3,68.2-116.4,136.6-232.8,204.4-349.4,6.9-11.8,14.6-15.7,28.1-15.7,666,.3,1332.1.3,1998.1,0,14.6,0,21.9,5.1,29,17.2,92,158,184.5,315.7,277.3,473.2,6.1,10.4,6.8,18,.6,28.7-219.9,377.1-439.6,754.3-658.9,1131.7-6.9,11.9-14.3,15.8-27.8,15.8-202.5-.4-405-.3-607.5-.3h-25.8Z"/>
      <path class="cls-1" d="M2455.6,761.5c-7.1,12.4-12.2,21.4-17.4,30.3-73.9,126.1-148,252.1-221.4,378.5-7.2,12.5-15,16.7-29.3,16.6-463.6-.4-927.2-.2-1390.8-.7-16.9,0-26.2,4.8-34.9,19.7-159.9,273.9-320.5,547.4-480.9,821-2.8,4.8-5.8,9.4-9.8,15.7-27.4-46.7-54-92.3-80.7-137.8-50.9-86.9-101.8-173.9-153.1-260.6-5.4-9.1-6-15.6-.4-25.1,165.4-281.5,330.5-563.1,495-845.1,7.3-12.6,16.4-12.5,27.7-12.5,340.8,0,681.7,0,1022.5,0,282.3,0,564.5,0,846.8,0s14.9,0,26.6,0Z"/>
    </g>
  </g>
</svg>